<svg width="167" height="26" viewBox="0 0 167 26" fill="none" xmlns="http://www.w3.org/2000/svg">
<path d="M12.0853 2.91817C12.3851 1.9979 13.687 1.9979 13.9869 2.91817L15.738 8.29257C15.8721 8.7042 16.2559 8.98278 16.6888 8.98278H22.3495C23.3189 8.98278 23.7213 10.2238 22.9363 10.7926L18.3614 14.1072C18.0099 14.3619 17.8629 14.8141 17.9973 15.2268L19.7459 20.5934C20.0459 21.5143 18.9926 22.2812 18.2084 21.713L13.6228 18.3907C13.2728 18.137 12.7994 18.137 12.4494 18.3907L7.86382 21.713C7.07956 22.2812 6.02627 21.5143 6.3263 20.5934L8.07487 15.2268C8.20932 14.8141 8.06224 14.3619 7.71078 14.1072L3.13591 10.7926C2.3509 10.2238 2.75323 8.98278 3.72263 8.98278H9.38338C9.81631 8.98278 10.2001 8.7042 10.3342 8.29257L12.0853 2.91817Z" fill="#070707"/>
<path d="M47.1823 2.91817C47.4822 1.9979 48.7841 1.9979 49.0839 2.91817L50.835 8.29257C50.9691 8.7042 51.3529 8.98278 51.7858 8.98278H57.4466C58.416 8.98278 58.8183 10.2238 58.0333 10.7926L53.4584 14.1072C53.107 14.3619 52.9599 14.8141 53.0943 15.2268L54.8429 20.5934C55.1429 21.5143 54.0897 22.2812 53.3054 21.713L48.7199 18.3907C48.3698 18.137 47.8965 18.137 47.5464 18.3907L42.9609 21.713C42.1766 22.2812 41.1233 21.5143 41.4233 20.5934L43.1719 15.2268C43.3064 14.8141 43.1593 14.3619 42.8078 14.1072L38.233 10.7926C37.4479 10.2238 37.8503 8.98278 38.8197 8.98278H44.4804C44.9134 8.98278 45.2971 8.7042 45.4312 8.29257L47.1823 2.91817Z" fill="#070707"/>
<path d="M82.2795 2.91817C82.5793 1.9979 83.8813 1.9979 84.1811 2.91817L85.9322 8.29257C86.0663 8.7042 86.4501 8.98278 86.883 8.98278H92.5438C93.5132 8.98278 93.9155 10.2238 93.1305 10.7926L88.5556 14.1072C88.2041 14.3619 88.0571 14.8141 88.1915 15.2268L89.9401 20.5934C90.2401 21.5143 89.1868 22.2812 88.4026 21.713L83.817 18.3907C83.467 18.137 82.9936 18.137 82.6436 18.3907L78.058 21.713C77.2738 22.2812 76.2205 21.5143 76.5205 20.5934L78.2691 15.2268C78.4035 14.8141 78.2565 14.3619 77.905 14.1072L73.3301 10.7926C72.5451 10.2238 72.9474 8.98278 73.9168 8.98278H79.5776C80.0105 8.98278 80.3943 8.7042 80.5284 8.29257L82.2795 2.91817Z" fill="#070707"/>
<path d="M117.377 2.91817C117.676 1.9979 118.978 1.9979 119.278 2.91817L121.029 8.29257C121.163 8.7042 121.547 8.98278 121.98 8.98278H127.641C128.61 8.98278 129.013 10.2238 128.228 10.7926L123.653 14.1072C123.301 14.3619 123.154 14.8141 123.289 15.2268L125.037 20.5934C125.337 21.5143 124.284 22.2812 123.5 21.713L118.914 18.3907C118.564 18.137 118.091 18.137 117.741 18.3907L113.155 21.713C112.371 22.2812 111.318 21.5143 111.618 20.5934L113.366 15.2268C113.501 14.8141 113.354 14.3619 113.002 14.1072L108.427 10.7926C107.642 10.2238 108.044 8.98278 109.014 8.98278H114.675C115.108 8.98278 115.491 8.7042 115.625 8.29257L117.377 2.91817Z" fill="#070707"/>
<path d="M152.474 2.91817C152.774 1.9979 154.075 1.9979 154.375 2.91817L156.126 8.29257C156.261 8.7042 156.644 8.98278 157.077 8.98278H162.738C163.707 8.98278 164.11 10.2238 163.325 10.7926L158.75 14.1072C158.398 14.3619 158.251 14.8141 158.386 15.2268L160.134 20.5934C160.434 21.5143 159.381 22.2812 158.597 21.713L154.011 18.3907C153.661 18.137 153.188 18.137 152.838 18.3907L148.252 21.713C147.468 22.2812 146.415 21.5143 146.715 20.5934L148.463 15.2268C148.598 14.8141 148.451 14.3619 148.099 14.1072L143.524 10.7926C142.739 10.2238 143.142 8.98278 144.111 8.98278H149.772C150.205 8.98278 150.588 8.7042 150.723 8.29257L152.474 2.91817Z" fill="#E5E5E5"/>
</svg>
