<svg width="167" height="26" viewBox="0 0 167 26" fill="none" xmlns="http://www.w3.org/2000/svg">
<path d="M12.0853 2.91842C12.3851 1.99814 13.687 1.99814 13.9869 2.91842L15.738 8.29282C15.8721 8.70444 16.2559 8.98302 16.6888 8.98302H22.3495C23.3189 8.98302 23.7213 10.2241 22.9363 10.7928L18.3614 14.1075C18.0099 14.3621 17.8629 14.8144 17.9973 15.227L19.7459 20.5937C20.0459 21.5145 18.9926 22.2815 18.2084 21.7133L13.6228 18.3909C13.2728 18.1373 12.7994 18.1373 12.4494 18.3909L7.86382 21.7133C7.07956 22.2815 6.02627 21.5145 6.3263 20.5937L8.07487 15.227C8.20932 14.8144 8.06224 14.3621 7.71078 14.1075L3.13591 10.7928C2.3509 10.2241 2.75323 8.98302 3.72263 8.98302H9.38338C9.81631 8.98302 10.2001 8.70444 10.3342 8.29282L12.0853 2.91842Z" fill="#070707"/>
<path d="M47.1826 2.91817C47.4824 1.9979 48.7843 1.9979 49.0842 2.91817L50.8353 8.29257C50.9694 8.7042 51.3532 8.98278 51.7861 8.98278H57.4468C58.4162 8.98278 58.8186 10.2238 58.0336 10.7926L53.4587 14.1072C53.1072 14.3619 52.9601 14.8141 53.0946 15.2268L54.8432 20.5934C55.1432 21.5143 54.0899 22.2812 53.3056 21.713L48.7201 18.3907C48.3701 18.137 47.8967 18.137 47.5467 18.3907L42.9611 21.713C42.1769 22.2812 41.1236 21.5143 41.4236 20.5934L43.1722 15.2268C43.3066 14.8141 43.1595 14.3619 42.8081 14.1072L38.2332 10.7926C37.4482 10.2238 37.8505 8.98278 38.8199 8.98278H44.4807C44.9136 8.98278 45.2974 8.7042 45.4315 8.29257L47.1826 2.91817Z" fill="#070707"/>
<path d="M82.2797 2.91817C82.5796 1.9979 83.8815 1.9979 84.1813 2.91817L85.9324 8.29257C86.0666 8.7042 86.4503 8.98278 86.8832 8.98278H92.544C93.5134 8.98278 93.9157 10.2238 93.1307 10.7926L88.5558 14.1072C88.2044 14.3619 88.0573 14.8141 88.1918 15.2268L89.9403 20.5934C90.2404 21.5143 89.1871 22.2812 88.4028 21.713L83.8173 18.3907C83.4672 18.137 82.9939 18.137 82.6438 18.3907L78.0583 21.713C77.274 22.2812 76.2207 21.5143 76.5208 20.5934L78.2693 15.2268C78.4038 14.8141 78.2567 14.3619 77.9052 14.1072L73.3304 10.7926C72.5454 10.2238 72.9477 8.98278 73.9171 8.98278H79.5778C80.0108 8.98278 80.3945 8.7042 80.5286 8.29257L82.2797 2.91817Z" fill="#070707"/>
<path d="M117.377 2.91817C117.677 1.9979 118.979 1.9979 119.279 2.91817L121.03 8.29257C121.164 8.7042 121.547 8.98278 121.98 8.98278H127.641C128.611 8.98278 129.013 10.2238 128.228 10.7926L123.653 14.1072C123.302 14.3619 123.154 14.8141 123.289 15.2268L125.038 20.5934C125.338 21.5143 124.284 22.2812 123.5 21.713L118.914 18.3907C118.564 18.137 118.091 18.137 117.741 18.3907L113.155 21.713C112.371 22.2812 111.318 21.5143 111.618 20.5934L113.366 15.2268C113.501 14.8141 113.354 14.3619 113.002 14.1072L108.428 10.7926C107.643 10.2238 108.045 8.98278 109.014 8.98278H114.675C115.108 8.98278 115.492 8.7042 115.626 8.29257L117.377 2.91817Z" fill="#070707"/>
<path d="M152.474 2.91817C152.774 1.9979 154.076 1.9979 154.376 2.91817L156.127 8.29257C156.261 8.7042 156.645 8.98278 157.078 8.98278H162.738C163.708 8.98278 164.11 10.2238 163.325 10.7926L158.75 14.1072C158.399 14.3619 158.252 14.8141 158.386 15.2268L160.135 20.5934C160.435 21.5143 159.381 22.2812 158.597 21.713L154.012 18.3907C153.662 18.137 153.188 18.137 152.838 18.3907L148.253 21.713C147.468 22.2812 146.415 21.5143 146.715 20.5934L148.464 15.2268C148.598 14.8141 148.451 14.3619 148.1 14.1072L143.525 10.7926C142.74 10.2238 143.142 8.98278 144.111 8.98278H149.772C150.205 8.98278 150.589 8.7042 150.723 8.29257L152.474 2.91817Z" fill="#E5E5E5"/>
</svg>
