<svg width="167" height="26" viewBox="0 0 167 26" fill="none" xmlns="http://www.w3.org/2000/svg">
<path d="M12.0854 2.91817C12.3853 1.9979 13.6872 1.9979 13.987 2.91817L15.7381 8.29257C15.8722 8.7042 16.256 8.98278 16.6889 8.98278H22.3497C23.3191 8.98278 23.7214 10.2238 22.9364 10.7926L18.3615 14.1072C18.0101 14.3619 17.863 14.8141 17.9974 15.2268L19.746 20.5934C20.046 21.5143 18.9927 22.2812 18.2085 21.713L13.6229 18.3907C13.2729 18.137 12.7995 18.137 12.4495 18.3907L7.86394 21.713C7.07968 22.2812 6.02639 21.5143 6.32642 20.5934L8.07499 15.2268C8.20944 14.8141 8.06236 14.3619 7.7109 14.1072L3.13603 10.7926C2.35102 10.2238 2.75336 8.98278 3.72275 8.98278H9.38351C9.81643 8.98278 10.2002 8.7042 10.3343 8.29257L12.0854 2.91817Z" fill="#070707"/>
<path d="M47.1826 2.91817C47.4824 1.9979 48.7843 1.9979 49.0842 2.91817L50.8353 8.29257C50.9694 8.7042 51.3532 8.98278 51.7861 8.98278H57.4468C58.4162 8.98278 58.8186 10.2238 58.0336 10.7926L53.4587 14.1072C53.1072 14.3619 52.9601 14.8141 53.0946 15.2268L54.8432 20.5934C55.1432 21.5143 54.0899 22.2812 53.3056 21.713L48.7201 18.3907C48.3701 18.137 47.8967 18.137 47.5467 18.3907L42.9611 21.713C42.1769 22.2812 41.1236 21.5143 41.4236 20.5934L43.1722 15.2268C43.3066 14.8141 43.1595 14.3619 42.8081 14.1072L38.2332 10.7926C37.4482 10.2238 37.8505 8.98278 38.8199 8.98278H44.4807C44.9136 8.98278 45.2974 8.7042 45.4315 8.29257L47.1826 2.91817Z" fill="#070707"/>
<path d="M82.2799 2.91817C82.5797 1.9979 83.8816 1.9979 84.1815 2.91817L85.9326 8.29257C86.0667 8.7042 86.4504 8.98278 86.8834 8.98278H92.5441C93.5135 8.98278 93.9158 10.2238 93.1308 10.7926L88.556 14.1072C88.2045 14.3619 88.0574 14.8141 88.1919 15.2268L89.9405 20.5934C90.2405 21.5143 89.1872 22.2812 88.4029 21.713L83.8174 18.3907C83.4673 18.137 82.994 18.137 82.6439 18.3907L78.0584 21.713C77.2741 22.2812 76.2209 21.5143 76.5209 20.5934L78.2694 15.2268C78.4039 14.8141 78.2568 14.3619 77.9054 14.1072L73.3305 10.7926C72.5455 10.2238 72.9478 8.98278 73.9172 8.98278H79.578C80.0109 8.98278 80.3946 8.7042 80.5288 8.29257L82.2799 2.91817Z" fill="#070707"/>
<path d="M117.377 2.91817C117.677 1.9979 118.979 1.9979 119.279 2.91817L121.03 8.29257C121.164 8.7042 121.547 8.98278 121.98 8.98278H127.641C128.611 8.98278 129.013 10.2238 128.228 10.7926L123.653 14.1072C123.302 14.3619 123.154 14.8141 123.289 15.2268L125.038 20.5934C125.338 21.5143 124.284 22.2812 123.5 21.713L118.914 18.3907C118.564 18.137 118.091 18.137 117.741 18.3907L113.155 21.713C112.371 22.2812 111.318 21.5143 111.618 20.5934L113.366 15.2268C113.501 14.8141 113.354 14.3619 113.002 14.1072L108.428 10.7926C107.643 10.2238 108.045 8.98278 109.014 8.98278H114.675C115.108 8.98278 115.492 8.7042 115.626 8.29257L117.377 2.91817Z" fill="#E5E5E5"/>
<path d="M152.474 2.91817C152.774 1.9979 154.076 1.9979 154.376 2.91817L156.127 8.29257C156.261 8.7042 156.645 8.98278 157.078 8.98278H162.738C163.708 8.98278 164.11 10.2238 163.325 10.7926L158.75 14.1072C158.399 14.3619 158.252 14.8141 158.386 15.2268L160.135 20.5934C160.435 21.5143 159.382 22.2812 158.597 21.713L154.012 18.3907C153.662 18.137 153.188 18.137 152.838 18.3907L148.253 21.713C147.468 22.2812 146.415 21.5143 146.715 20.5934L148.464 15.2268C148.598 14.8141 148.451 14.3619 148.1 14.1072L143.525 10.7926C142.74 10.2238 143.142 8.98278 144.112 8.98278H149.772C150.205 8.98278 150.589 8.7042 150.723 8.29257L152.474 2.91817Z" fill="#E5E5E5"/>
</svg>
